<?xml version="1.0" encoding="utf-8"?>
<!-- Generator: Adobe Illustrator 15.0.0, SVG Export Plug-In . SVG Version: 6.00 Build 0)  -->
<!DOCTYPE svg PUBLIC "-//W3C//DTD SVG 1.1//EN" "http://www.w3.org/Graphics/SVG/1.1/DTD/svg11.dtd">
<svg version="1.1" id="Layer_1" xmlns="http://www.w3.org/2000/svg" xmlns:xlink="http://www.w3.org/1999/xlink" x="0px" y="0px"
	 width="32px" height="32px" viewBox="0 0 32 32" enable-background="new 0 0 32 32" xml:space="preserve">
<g>
	<path fill="#FFFFFF" d="M16.002,0C7.164,0,0,7.165,0,16.002c0,8.838,7.164,16.002,16.002,16.002
		c8.837,0,16.001-7.164,16.001-16.002C32.004,7.165,24.84,0,16.002,0z M19.447,15.956h-2.225v7.382h-3.304v-7.382h-1.57v-2.607h1.57
		v-1.687c0-1.206,0.617-3.095,3.332-3.095l2.447,0.009v2.531h-1.773c-0.295,0-0.701,0.136-0.701,0.712v1.534h2.512L19.447,15.956z"
		/>
</g>
</svg>
