<svg xmlns="http://www.w3.org/2000/svg" width="68" height="68" viewBox="0 0 68 68">
  <metadata><?xpacket begin="﻿" id="W5M0MpCehiHzreSzNTczkc9d"?>
<x:xmpmeta xmlns:x="adobe:ns:meta/" x:xmptk="Adobe XMP Core 5.6-c140 79.160451, 2017/05/06-01:08:21        ">
   <rdf:RDF xmlns:rdf="http://www.w3.org/1999/02/22-rdf-syntax-ns#">
      <rdf:Description rdf:about=""/>
   </rdf:RDF>
</x:xmpmeta>
                                                                                                    
                                                                                                    
                                                                                                    
                                                                                                    
                                                                                                    
                                                                                                    
                                                                                                    
                                                                                                    
                                                                                                    
                                                                                                    
                                                                                                    
                                                                                                    
                                                                                                    
                                                                                                    
                                                                                                    
                                                                                                    
                                                                                                    
                                                                                                    
                                                                                                    
                                                                                                    
                           
<?xpacket end="w"?></metadata>
<defs>
    <style>
      .cls-1 {
        fill: #c3a885;
        fill-rule: evenodd;
      }
    </style>
  </defs>
  <path id="hygiene_whitening_icon" data-name="hygiene &amp; whitening  icon" class="cls-1" d="M823.5,865h-25A21.524,21.524,0,0,0,777,886.5v25A21.524,21.524,0,0,0,798.5,933h25A21.524,21.524,0,0,0,845,911.5v-25A21.524,21.524,0,0,0,823.5,865ZM842,911.5A18.521,18.521,0,0,1,823.5,930h-25A18.522,18.522,0,0,1,780,911.5v-25A18.522,18.522,0,0,1,798.5,868h25A18.521,18.521,0,0,1,842,886.5v25Zm-12.043-33.364a0.382,0.382,0,0,1,.057.011,4.124,4.124,0,0,1,3.765-3.871c0-.026.01-0.05,0.014-0.077a4.118,4.118,0,0,1-3.766-3.754c-0.009,0-.015,0-0.025,0a0.535,0.535,0,0,1-.055-0.011,4.119,4.119,0,0,1-3.784,3.762c0,0.024-.01.046-0.012,0.07A4.123,4.123,0,0,1,829.957,878.136Zm0.03-5.562a1.662,1.662,0,0,1,0,3.324A1.662,1.662,0,1,1,829.987,872.574Zm3.59,11.623c-0.011,0-.018,0-0.029,0s-0.039-.011-0.063-0.013a4.743,4.743,0,0,1-4.357,4.332c0,0.027-.012.053-0.014,0.08a4.747,4.747,0,0,1,4.383,4.45c0.023,0,.042.009,0.065,0.013a4.747,4.747,0,0,1,4.335-4.457c0-.03.011-0.058,0.016-0.088A4.743,4.743,0,0,1,833.577,884.2Zm-0.046,6.277a1.913,1.913,0,1,1,0-3.826A1.913,1.913,0,0,1,833.531,890.474Zm-21.058-9.814c0,0.057-.024.108-0.029,0.164a9.7,9.7,0,0,1,8.952,9.089c0.047,0,.086.018,0.133,0.026a9.694,9.694,0,0,1,8.854-9.1c0-.061.023-0.118,0.032-0.18a9.686,9.686,0,0,1-8.855-8.828c-0.022,0-.036.012-0.059,0.012-0.049,0-.081-0.024-0.13-0.027A9.684,9.684,0,0,1,812.473,880.66Zm8.992-6.825a6.83,6.83,0,0,0,6.908,6.907,6.832,6.832,0,0,0-6.908,6.908,6.831,6.831,0,0,0-6.909-6.908A6.829,6.829,0,0,0,821.465,873.835Zm4.533,9.31a0.751,0.751,0,0,0-.2,1.041c1.771,2.628-.213,9.167-1.526,13.494-0.439,1.449-.819,2.7-1,3.6a41.007,41.007,0,0,0-.705,6.5c-0.1,1.707-.224,3.831-0.474,6.919-0.677,8.392-.948,8.607-4.3,8.812a2.971,2.971,0,0,1-2.274-.671c-1.431-1.281-1.774-4.419-1.931-7.617-0.041-.829-0.055-1.732-0.069-2.66-0.061-3.951-.124-8.036-2.062-9.839a3.391,3.391,0,0,0-2.577-.881c-4.381.248-4.59,6.567-4.759,11.644-0.031.934-.06,1.831-0.114,2.639l-0.023.339c-0.344,5.2-.622,6.848-4.187,7.045a2.956,2.956,0,0,1-2.251-.653c-1.3-1.176-1.417-3.845-1.512-5.99L796,916.23c-0.171-3.415-.717-10.362-1.257-13.99-0.228-1.531-.764-3.675-1.332-5.945-0.911-3.638-1.943-7.761-1.993-10.458-0.048-2.629,2.5-10.416,10.711-10.9,6.544-.383,8.814,2.727,9.671,3.9a1.084,1.084,0,0,0,1.132.665,0.75,0.75,0,0,0,.213-1.366c-0.037-.048-0.081-0.111-0.134-0.184a10.564,10.564,0,0,0-2.049-2.172,9.932,9.932,0,0,1,7.406-.318,0.75,0.75,0,0,0,.6-1.374,11.587,11.587,0,0,0-9.485.733,13.772,13.772,0,0,0-7.445-1.379c-8.612.512-12.195,8.478-12.122,12.429,0.053,2.868,1.107,7.08,2.037,10.795,0.559,2.234,1.087,4.343,1.305,5.8,0.532,3.581,1.073,10.459,1.242,13.844l0.03,0.637c0.106,2.423.239,5.439,2,7.035a4.43,4.43,0,0,0,3.341,1.039c5.061-.281,5.287-3.7,5.6-8.444l0.023-.338c0.055-.824.085-1.737,0.116-2.689,0.149-4.467.333-10.025,3.345-10.2a1.87,1.87,0,0,1,1.471.481c1.469,1.368,1.532,5.469,1.583,8.764,0.015,0.946.029,1.866,0.071,2.71,0.161,3.283.5,6.93,2.429,8.662a4.315,4.315,0,0,0,2.981,1.062c0.126,0,.254,0,0.385-0.012,4.737-.29,5.042-2.027,5.7-10.188,0.251-3.1.376-5.238,0.477-6.952a39.176,39.176,0,0,1,.677-6.292c0.171-.836.541-2.056,0.97-3.468,1.478-4.874,3.5-11.548,1.334-14.768A0.751,0.751,0,0,0,826,883.145Z" transform="translate(-777 -865)"/>
</svg>
