<svg xmlns="http://www.w3.org/2000/svg" width="47.625" height="47.62" viewBox="0 0 47.625 47.62">
  <metadata><?xpacket begin="﻿" id="W5M0MpCehiHzreSzNTczkc9d"?>
<x:xmpmeta xmlns:x="adobe:ns:meta/" x:xmptk="Adobe XMP Core 5.6-c140 79.160451, 2017/05/06-01:08:21        ">
   <rdf:RDF xmlns:rdf="http://www.w3.org/1999/02/22-rdf-syntax-ns#">
      <rdf:Description rdf:about=""/>
   </rdf:RDF>
</x:xmpmeta>
                                                                                                    
                                                                                                    
                                                                                                    
                                                                                                    
                                                                                                    
                                                                                                    
                                                                                                    
                                                                                                    
                                                                                                    
                                                                                                    
                                                                                                    
                                                                                                    
                                                                                                    
                                                                                                    
                                                                                                    
                                                                                                    
                                                                                                    
                                                                                                    
                                                                                                    
                                                                                                    
                           
<?xpacket end="w"?></metadata>
<defs>
    <style>
      .cls-1 {
        fill: #fff;
        fill-rule: evenodd;
        opacity: 0.69;
      }
    </style>
  </defs>
  <path id="istagram" class="cls-1" d="M369.588,3080.38a3.216,3.216,0,0,0-.778-1.19,3.257,3.257,0,0,0-1.194-.78,5.859,5.859,0,0,0-1.928-.36c-1.094-.05-1.419-0.06-4.192-0.06s-3.1.01-4.192,0.06a5.881,5.881,0,0,0-1.926.36,3.271,3.271,0,0,0-1.191.78,3.177,3.177,0,0,0-.777,1.19,5.834,5.834,0,0,0-.359,1.93c-0.049,1.09-.059,1.42-0.059,4.19s0.01,3.1.059,4.19a5.755,5.755,0,0,0,.359,1.93,3.473,3.473,0,0,0,1.968,1.97,5.893,5.893,0,0,0,1.926.36c1.1,0.05,1.424.06,4.192,0.06s3.1-.01,4.192-0.06a5.859,5.859,0,0,0,1.928-.36,3.136,3.136,0,0,0,1.194-.78,3.216,3.216,0,0,0,.778-1.19,5.783,5.783,0,0,0,.355-1.93c0.049-1.09.061-1.42,0.061-4.19s-0.012-3.1-.061-4.19A5.783,5.783,0,0,0,369.588,3080.38Zm-8.092,11.45a5.33,5.33,0,1,1,5.332-5.33A5.332,5.332,0,0,1,361.5,3091.83Zm5.54-9.62a1.245,1.245,0,1,1,1.246-1.25A1.243,1.243,0,0,1,367.036,3082.21Zm-6.128-19.51a23.8,23.8,0,1,0,23.8,23.8A23.8,23.8,0,0,0,360.908,3062.7Zm10.9,28.08a7.556,7.556,0,0,1-.48,2.52,5.11,5.11,0,0,1-1.2,1.83,4.966,4.966,0,0,1-1.837,1.2,7.5,7.5,0,0,1-2.519.48c-1.105.05-1.456,0.07-4.278,0.07s-3.168-.02-4.278-0.07a7.515,7.515,0,0,1-2.517-.48,5.009,5.009,0,0,1-1.838-1.2,5.128,5.128,0,0,1-1.2-1.83,7.626,7.626,0,0,1-.482-2.52c-0.052-1.11-.063-1.46-0.063-4.28s0.011-3.17.063-4.28a7.408,7.408,0,0,1,.482-2.51,5.319,5.319,0,0,1,3.035-3.04,7.515,7.515,0,0,1,2.517-.48c1.11-.05,1.462-0.07,4.278-0.07s3.173,0.02,4.278.07a7.5,7.5,0,0,1,2.519.48,5.338,5.338,0,0,1,3.037,3.04,7.438,7.438,0,0,1,.48,2.51c0.053,1.11.064,1.46,0.064,4.28S371.863,3089.67,371.81,3090.78Zm-10.314-7.74a3.46,3.46,0,1,1-3.457,3.46A3.459,3.459,0,0,1,361.5,3083.04Z" transform="translate(-337.094 -3062.69)"/>
</svg>
