<?xml version="1.0" encoding="utf-8"?>
<!-- Generator: Adobe Illustrator 15.0.0, SVG Export Plug-In . SVG Version: 6.00 Build 0)  -->
<!DOCTYPE svg PUBLIC "-//W3C//DTD SVG 1.1//EN" "http://www.w3.org/Graphics/SVG/1.1/DTD/svg11.dtd">
<svg version="1.1" id="Layer_1" xmlns="http://www.w3.org/2000/svg" xmlns:xlink="http://www.w3.org/1999/xlink" x="0px" y="0px"
	 width="32px" height="32px" viewBox="0 0 32 32" enable-background="new 0 0 32 32" xml:space="preserve">
<g>
	<path fill="#FFFFFF" d="M21.836,11.888c-0.127-0.324-0.28-0.558-0.524-0.8c-0.241-0.244-0.476-0.397-0.802-0.524
		c-0.245-0.093-0.614-0.209-1.296-0.24c-0.735-0.034-0.954-0.041-2.818-0.041c-1.861,0-2.082,0.007-2.818,0.041
		c-0.679,0.031-1.049,0.146-1.295,0.24c-0.325,0.127-0.557,0.28-0.8,0.524c-0.246,0.243-0.396,0.476-0.523,0.8
		c-0.094,0.245-0.209,0.616-0.241,1.295c-0.033,0.736-0.04,0.956-0.04,2.818c0,1.863,0.007,2.086,0.04,2.819
		c0.031,0.679,0.146,1.051,0.241,1.296c0.126,0.323,0.277,0.558,0.523,0.803c0.243,0.243,0.475,0.394,0.8,0.52
		c0.247,0.097,0.616,0.211,1.295,0.242c0.737,0.033,0.957,0.039,2.818,0.039c1.864,0,2.084-0.006,2.818-0.039
		c0.682-0.031,1.051-0.146,1.296-0.242c0.326-0.126,0.561-0.276,0.802-0.52c0.244-0.245,0.397-0.479,0.524-0.803
		c0.094-0.245,0.208-0.617,0.238-1.296c0.034-0.733,0.041-0.956,0.041-2.819c0-1.862-0.007-2.082-0.041-2.818
		C22.044,12.503,21.93,12.133,21.836,11.888z M16.396,19.583c-1.977,0-3.582-1.603-3.582-3.582c0-1.976,1.605-3.581,3.582-3.581
		c1.979,0,3.584,1.604,3.584,3.581C19.979,17.98,18.375,19.583,16.396,19.583z M20.12,13.116c-0.465,0-0.836-0.375-0.836-0.838
		c0-0.461,0.371-0.835,0.836-0.835c0.462,0,0.838,0.374,0.838,0.835C20.958,12.741,20.582,13.116,20.12,13.116z"/>
	<path fill="#FFFFFF" d="M16.001,0C7.164,0,0,7.165,0,16.002c0,8.838,7.164,16.001,16.001,16.001s16.001-7.163,16.001-16.001
		C32.003,7.165,24.839,0,16.001,0z M23.329,18.878c-0.031,0.742-0.15,1.249-0.322,1.692c-0.179,0.46-0.418,0.846-0.807,1.234
		c-0.388,0.39-0.775,0.628-1.235,0.805c-0.442,0.174-0.949,0.289-1.693,0.324c-0.742,0.035-0.979,0.043-2.876,0.043
		c-1.893,0-2.13-0.008-2.876-0.043c-0.742-0.035-1.248-0.15-1.692-0.324c-0.458-0.177-0.847-0.415-1.235-0.805
		c-0.388-0.389-0.626-0.774-0.805-1.234c-0.172-0.443-0.292-0.95-0.324-1.692c-0.035-0.745-0.042-0.981-0.042-2.877
		c0-1.895,0.007-2.131,0.042-2.875c0.031-0.743,0.151-1.25,0.324-1.692c0.179-0.46,0.417-0.848,0.805-1.236
		c0.388-0.389,0.776-0.628,1.235-0.804c0.444-0.174,0.95-0.292,1.692-0.326c0.746-0.034,0.983-0.042,2.876-0.042
		c1.896,0,2.134,0.008,2.876,0.042c0.744,0.034,1.251,0.152,1.693,0.326c0.46,0.176,0.848,0.415,1.235,0.804
		c0.389,0.388,0.628,0.775,0.807,1.236c0.172,0.442,0.291,0.949,0.322,1.692c0.036,0.744,0.043,0.98,0.043,2.875
		C23.372,17.896,23.365,18.133,23.329,18.878z"/>
	<circle fill="#FFFFFF" cx="16.396" cy="16.001" r="2.324"/>
</g>
</svg>
