<?xml version="1.0" encoding="utf-8"?>
<!-- Generator: Adobe Illustrator 15.0.0, SVG Export Plug-In . SVG Version: 6.00 Build 0)  -->
<!DOCTYPE svg PUBLIC "-//W3C//DTD SVG 1.1//EN" "http://www.w3.org/Graphics/SVG/1.1/DTD/svg11.dtd">
<svg version="1.1" id="Layer_1" xmlns="http://www.w3.org/2000/svg" xmlns:xlink="http://www.w3.org/1999/xlink" x="0px" y="0px"
	 width="32px" height="32px" viewBox="0 0 32 32" enable-background="new 0 0 32 32" xml:space="preserve">
<g>
	<circle fill="#E6DDD3" cx="16.001" cy="16.002" r="16.001"/>
	<g>
		<g>
			<path d="M16.396,10.283c1.864,0,2.083,0.007,2.818,0.041c0.682,0.031,1.051,0.146,1.296,0.24c0.326,0.127,0.561,0.28,0.802,0.524
				c0.244,0.243,0.397,0.476,0.524,0.8c0.094,0.245,0.208,0.616,0.238,1.295c0.034,0.736,0.041,0.956,0.041,2.818
				c0,1.863-0.007,2.086-0.041,2.819c-0.03,0.679-0.145,1.051-0.238,1.296c-0.127,0.323-0.28,0.558-0.524,0.803
				c-0.241,0.243-0.476,0.394-0.802,0.52c-0.245,0.097-0.614,0.211-1.296,0.242c-0.734,0.033-0.954,0.039-2.818,0.039
				c-1.861,0-2.082-0.006-2.818-0.039c-0.679-0.031-1.049-0.146-1.295-0.242c-0.325-0.126-0.557-0.276-0.8-0.52
				c-0.246-0.245-0.396-0.479-0.523-0.803c-0.094-0.245-0.209-0.617-0.241-1.296c-0.033-0.733-0.04-0.956-0.04-2.819
				c0-1.862,0.007-2.082,0.04-2.818c0.031-0.68,0.146-1.05,0.241-1.295c0.126-0.324,0.277-0.558,0.523-0.8
				c0.243-0.244,0.475-0.397,0.8-0.524c0.247-0.093,0.616-0.209,1.295-0.24C14.314,10.29,14.534,10.283,16.396,10.283 M16.396,9.027
				c-1.893,0-2.13,0.008-2.876,0.042c-0.742,0.034-1.248,0.152-1.692,0.326c-0.458,0.176-0.847,0.415-1.235,0.804
				c-0.388,0.388-0.626,0.775-0.805,1.236c-0.172,0.442-0.292,0.949-0.324,1.692c-0.035,0.744-0.042,0.98-0.042,2.875
				c0,1.896,0.007,2.132,0.042,2.877c0.031,0.742,0.151,1.249,0.324,1.692c0.179,0.46,0.417,0.846,0.805,1.234
				c0.388,0.39,0.776,0.628,1.235,0.805c0.444,0.174,0.95,0.289,1.692,0.324c0.746,0.035,0.983,0.043,2.876,0.043
				c1.896,0,2.134-0.008,2.876-0.043c0.744-0.035,1.251-0.15,1.693-0.324c0.46-0.177,0.848-0.415,1.235-0.805
				c0.389-0.389,0.628-0.774,0.807-1.234c0.172-0.443,0.291-0.95,0.322-1.692c0.036-0.745,0.043-0.981,0.043-2.877
				c0-1.895-0.007-2.131-0.043-2.875c-0.031-0.743-0.15-1.25-0.322-1.692c-0.179-0.46-0.418-0.848-0.807-1.236
				c-0.388-0.389-0.775-0.628-1.235-0.804c-0.442-0.174-0.949-0.292-1.693-0.326C18.529,9.035,18.292,9.027,16.396,9.027"/>
		</g>
		<path d="M16.396,12.42c-1.977,0-3.582,1.604-3.582,3.581c0,1.979,1.605,3.582,3.582,3.582c1.979,0,3.584-1.603,3.584-3.582
			C19.979,14.025,18.375,12.42,16.396,12.42 M16.396,18.325c-1.283,0-2.326-1.039-2.326-2.324c0-1.284,1.043-2.324,2.326-2.324
			c1.286,0,2.326,1.04,2.326,2.324C18.722,17.286,17.682,18.325,16.396,18.325"/>
		<path d="M20.958,12.278c0,0.463-0.376,0.838-0.838,0.838c-0.465,0-0.836-0.375-0.836-0.838c0-0.461,0.371-0.835,0.836-0.835
			C20.582,11.442,20.958,11.816,20.958,12.278"/>
	</g>
</g>
</svg>
