<svg xmlns="http://www.w3.org/2000/svg" width="68" height="68" viewBox="0 0 68 68">
  <metadata><?xpacket begin="﻿" id="W5M0MpCehiHzreSzNTczkc9d"?>
<x:xmpmeta xmlns:x="adobe:ns:meta/" x:xmptk="Adobe XMP Core 5.6-c140 79.160451, 2017/05/06-01:08:21        ">
   <rdf:RDF xmlns:rdf="http://www.w3.org/1999/02/22-rdf-syntax-ns#">
      <rdf:Description rdf:about=""/>
   </rdf:RDF>
</x:xmpmeta>
                                                                                                    
                                                                                                    
                                                                                                    
                                                                                                    
                                                                                                    
                                                                                                    
                                                                                                    
                                                                                                    
                                                                                                    
                                                                                                    
                                                                                                    
                                                                                                    
                                                                                                    
                                                                                                    
                                                                                                    
                                                                                                    
                                                                                                    
                                                                                                    
                                                                                                    
                                                                                                    
                           
<?xpacket end="w"?></metadata>
<defs>
    <style>
      .cls-1 {
        fill: #c3a885;
        fill-rule: evenodd;
      }
    </style>
  </defs>
  <path id="orthodontics_icon" data-name="orthodontics icon" class="cls-1" d="M823.5,1083h-25a21.521,21.521,0,0,0-21.5,21.5v25a21.521,21.521,0,0,0,21.5,21.5h25a21.521,21.521,0,0,0,21.5-21.5v-25A21.521,21.521,0,0,0,823.5,1083Zm18.5,46.5a18.522,18.522,0,0,1-18.5,18.5h-25a18.522,18.522,0,0,1-18.5-18.5v-25a18.522,18.522,0,0,1,18.5-18.5h25a18.522,18.522,0,0,1,18.5,18.5v25Zm-20.964-37.2c-4.111-1.18-5.506-.92-9.369.77a13.844,13.844,0,0,0-7.465-1.39c-8.611.52-12.194,8.48-12.122,12.43a52.011,52.011,0,0,0,1.869,10.13l0.172,0.69c0.558,2.22,1.084,4.33,1.3,5.78,0.533,3.58,1.073,10.46,1.242,13.84l0.03,0.64c0.106,2.43.239,5.44,2,7.04a4.465,4.465,0,0,0,3.341,1.04c5.061-.28,5.287-3.71,5.6-8.45l0.023-.34c0.055-.82.085-1.73,0.117-2.69,0.148-4.46.332-10.02,3.344-10.19a1.889,1.889,0,0,1,1.471.48c1.469,1.37,1.532,5.47,1.583,8.76,0.015,0.95.029,1.87,0.071,2.71,0.161,3.29.5,6.93,2.429,8.67a4.345,4.345,0,0,0,2.981,1.06c0.126,0,.254-0.01.385-0.01,4.738-.29,5.042-2.03,5.7-10.19,0.251-3.11.376-5.24,0.477-6.95a39.542,39.542,0,0,1,.677-6.3c0.077-.37.277-1.05,0.529-1.91,1.134-3.87,3.245-11.06,2.224-16.62C828.6,1095.57,822.589,1092.74,821.036,1092.3Zm-27.456,11.79c-0.048-2.63,2.5-10.42,10.711-10.91,6.533-.39,8.814,2.73,9.671,3.9a1.1,1.1,0,0,0,1.131.67,0.752,0.752,0,0,0,.214-1.37c-0.037-.05-0.081-0.11-0.134-0.18a10.163,10.163,0,0,0-2-2.15c2.763-1.16,3.948-1.31,7.455-.31,1.28,0.36,6.649,2.91,7.552,7.83a22.984,22.984,0,0,1-.153,7.45h-7.264a21.581,21.581,0,0,0-.75-4.98,0.746,0.746,0,0,0-.513-0.52,25.855,25.855,0,0,0-15.992,0,0.748,0.748,0,0,0-.514.52,21.579,21.579,0,0,0-.749,4.98h-7.376a0.729,0.729,0,0,0-.545.24A29.57,29.57,0,0,1,793.58,1104.09Zm25.7,5.68a20.071,20.071,0,0,1-.613,4.92,24.18,24.18,0,0,1-14.34,0,20.051,20.051,0,0,1,0-9.85,24.18,24.18,0,0,1,14.34,0,20.131,20.131,0,0,1,.613,4.92,0.016,0.016,0,0,0,0,.01h0Zm6.705,7.73c-0.273.93-.47,1.6-0.56,2.03a41.048,41.048,0,0,0-.705,6.51c-0.1,1.71-.224,3.83-0.474,6.92-0.677,8.39-.948,8.6-4.3,8.81a2.96,2.96,0,0,1-2.273-.67c-1.432-1.28-1.775-4.42-1.932-7.62-0.041-.83-0.055-1.73-0.069-2.66-0.061-3.95-.124-8.04-2.061-9.84a3.309,3.309,0,0,0-2.331-.89c-0.082,0-.164.01-0.247,0.01-4.38.25-4.59,6.57-4.758,11.64-0.032.94-.061,1.84-0.115,2.64l-0.023.34c-0.343,5.2-.622,6.85-4.187,7.05a2.934,2.934,0,0,1-2.251-.65c-1.3-1.18-1.417-3.85-1.512-5.99l-0.03-.65c-0.171-3.41-.717-10.36-1.257-13.99-0.227-1.53-.762-3.66-1.329-5.93l-0.172-.69c-0.285-1.14-.565-2.29-0.821-3.41a0.876,0.876,0,0,0,.282.06h7.376a21.576,21.576,0,0,0,.749,4.97,0.748,0.748,0,0,0,.514.52,26.4,26.4,0,0,0,15.992,0,0.746,0.746,0,0,0,.513-0.52,21.578,21.578,0,0,0,.75-4.97h7C827.222,1113.28,826.479,1115.82,825.988,1117.5Zm-9.435-11.4a0.831,0.831,0,0,0-.833.83A0.834,0.834,0,1,0,816.553,1106.1Zm0,5.67a0.83,0.83,0,1,0,.834.83A0.831,0.831,0,0,0,816.553,1111.77Zm-10.543-5.67a0.831,0.831,0,0,0-.833.83,0.833,0.833,0,1,0,1.666,0A0.831,0.831,0,0,0,806.01,1106.1Zm0,5.67a0.83,0.83,0,1,0,.833.83A0.831,0.831,0,0,0,806.01,1111.77Z" transform="translate(-777 -1083)"/>
</svg>
