<svg xmlns="http://www.w3.org/2000/svg" width="68" height="68" viewBox="0 0 68 68">
  <metadata><?xpacket begin="﻿" id="W5M0MpCehiHzreSzNTczkc9d"?>
<x:xmpmeta xmlns:x="adobe:ns:meta/" x:xmptk="Adobe XMP Core 5.6-c140 79.160451, 2017/05/06-01:08:21        ">
   <rdf:RDF xmlns:rdf="http://www.w3.org/1999/02/22-rdf-syntax-ns#">
      <rdf:Description rdf:about=""/>
   </rdf:RDF>
</x:xmpmeta>
                                                                                                    
                                                                                                    
                                                                                                    
                                                                                                    
                                                                                                    
                                                                                                    
                                                                                                    
                                                                                                    
                                                                                                    
                                                                                                    
                                                                                                    
                                                                                                    
                                                                                                    
                                                                                                    
                                                                                                    
                                                                                                    
                                                                                                    
                                                                                                    
                                                                                                    
                                                                                                    
                           
<?xpacket end="w"?></metadata>
<defs>
    <style>
      .cls-1 {
        fill: #c3a885;
        fill-rule: evenodd;
      }
    </style>
  </defs>
  <path id="Paradontologie_icon" data-name="Paradontologie icon" class="cls-1" d="M1190.5,1083h-25a21.518,21.518,0,0,0-21.5,21.5v25a21.518,21.518,0,0,0,21.5,21.5h25a21.525,21.525,0,0,0,21.5-21.5v-25A21.525,21.525,0,0,0,1190.5,1083Zm0,65h-25a18.522,18.522,0,0,1-18.5-18.5v-12.17h11.18a0.75,0.75,0,1,0,0-1.5H1147V1104.5a18.522,18.522,0,0,1,18.5-18.5h25a18.522,18.522,0,0,1,18.5,18.5v11.33h-11.82a0.75,0.75,0,0,0,0,1.5H1209v12.17A18.522,18.522,0,0,1,1190.5,1148Zm-28.97-34.67-0.24.05-0.49.13Zm27.99,1.27c-0.8-2.5-4.63-3.76-11.41-3.76h-0.49c-7.9,0-10.12,2.56-10.73,3.78a35.981,35.981,0,0,0-4.86.78,0.725,0.725,0,0,0-.48.34,0.752,0.752,0,0,0-.08.57c0.39,1.58.77,3.21,0.95,4.4,0.53,3.58,1.07,10.46,1.24,13.84l0.03,0.64c0.15,3.31.35,8.35,5.35,8.08,5.06-.28,5.29-3.71,5.6-8.45l0.02-.34c0.06-.82.09-1.73,0.12-2.68,0.15-4.47.33-10.03,3.34-10.2l0.16-.01c2.55,0,2.82,4.01,2.9,9.25,0.01,0.95.03,1.87,0.07,2.71,0.18,3.64.48,9.73,5.4,9.73,0.13,0,.26-0.01.39-0.01,4.86-.3,5.02-2.2,5.7-10.19,0.66-7.71.85-9.73,1.23-11.92,0.04-.19.14-0.7,0.26-1.33,0.5-2.53.62-3.2,0.62-3.42a0.749,0.749,0,0,0-.22-0.53C1194.47,1115.71,1194.2,1115.44,1189.52,1114.6Zm3.24,4.94c-0.13.64-.23,1.17-0.26,1.37-0.39,2.24-.59,4.28-1.25,12.04-0.71,8.28-.87,8.61-4.3,8.82-3.17.22-3.94-2.86-4.2-8.29-0.05-.83-0.06-1.73-0.07-2.66-0.08-4.78-.17-10.73-4.4-10.73-0.08,0-.16.01-0.24,0.01-4.38.25-4.59,6.57-4.76,11.65-0.03.93-.06,1.83-0.11,2.63l-0.03.34c-0.34,5.2-.62,6.85-4.19,7.05-3.21.18-3.59-2.76-3.76-6.64l-0.03-.65c-0.17-3.41-.71-10.36-1.25-13.99-0.16-1.06-.47-2.42-0.8-3.79a26.521,26.521,0,0,1,4.3-.6,0.778,0.778,0,0,0,.73-0.58c0.01-.03.93-3.18,9.49-3.18h0.48c6.11,0,9.77,1.1,10.05,3.02a0.732,0.732,0,0,0,.61.63c1.68,0.3,3.61.68,4.5,0.92C1193.14,1117.61,1192.91,1118.8,1192.76,1119.54Zm3.89-18.24c-1.05-5.73-7.06-8.56-8.61-9-4.12-1.18-5.52-.92-9.38.77a13.878,13.878,0,0,0-7.46-1.39c-8.61.52-12.19,8.48-12.12,12.43a44.887,44.887,0,0,0,1.71,9.36l0.5-.09,0.96-.27a44.3,44.3,0,0,1-1.67-9.02c-0.05-2.63,2.49-10.42,10.71-10.91,6.54-.39,8.82,2.73,9.67,3.9a1.1,1.1,0,0,0,1.13.67,0.755,0.755,0,0,0,.22-1.37c-0.04-.05-0.08-0.11-0.14-0.18a10.172,10.172,0,0,0-2-2.15c2.76-1.16,3.95-1.31,7.45-.31,1.28,0.36,6.65,2.91,7.56,7.83,0.79,4.35-.09,7.4-1.11,10.94l-0.21.71a0.756,0.756,0,0,0,.72.95,0.738,0.738,0,0,0,.72-0.54l0.21-.7C1196.54,1109.36,1197.51,1105.99,1196.65,1101.3Z" transform="translate(-1144 -1083)"/>
</svg>
