<svg xmlns="http://www.w3.org/2000/svg" width="68" height="68" viewBox="0 0 68 68">
  <metadata><?xpacket begin="﻿" id="W5M0MpCehiHzreSzNTczkc9d"?>
<x:xmpmeta xmlns:x="adobe:ns:meta/" x:xmptk="Adobe XMP Core 5.6-c140 79.160451, 2017/05/06-01:08:21        ">
   <rdf:RDF xmlns:rdf="http://www.w3.org/1999/02/22-rdf-syntax-ns#">
      <rdf:Description rdf:about=""/>
   </rdf:RDF>
</x:xmpmeta>
                                                                                                    
                                                                                                    
                                                                                                    
                                                                                                    
                                                                                                    
                                                                                                    
                                                                                                    
                                                                                                    
                                                                                                    
                                                                                                    
                                                                                                    
                                                                                                    
                                                                                                    
                                                                                                    
                                                                                                    
                                                                                                    
                                                                                                    
                                                                                                    
                                                                                                    
                                                                                                    
                           
<?xpacket end="w"?></metadata>
<defs>
    <style>
      .cls-1 {
        fill: #c3a885;
        fill-rule: evenodd;
      }
    </style>
  </defs>
  <path id="Prosthetics_icon" data-name="Prosthetics icon" class="cls-1" d="M456.5,1083h-25a21.521,21.521,0,0,0-21.5,21.5v25a21.521,21.521,0,0,0,21.5,21.5h25a21.521,21.521,0,0,0,21.5-21.5v-25A21.521,21.521,0,0,0,456.5,1083Zm18.5,46.5a18.522,18.522,0,0,1-18.5,18.5h-25a18.522,18.522,0,0,1-18.5-18.5v-25a18.522,18.522,0,0,1,18.5-18.5h25a18.522,18.522,0,0,1,18.5,18.5v25Zm-20.968-36.7c-4.115-1.18-5.516-.92-9.381.77a13.884,13.884,0,0,0-7.453-1.39c-8.612.52-12.195,8.48-12.122,12.43a36.341,36.341,0,0,0,1.444,7.87l0.349,1.39c0.111,0.44.265,0.96,0.417,1.47s0.3,0.99.394,1.4c0,0.02.018,0.03,0.024,0.05a0.752,0.752,0,0,0,.741.71h3.649v4.12a0.746,0.746,0,0,0,.75.75h22.312a0.746,0.746,0,0,0,.75-0.75v-4.12h4.039a0.743,0.743,0,0,0,.7-0.5,0.771,0.771,0,0,0,.236-0.36c1.355-4.72,2.624-10.17,1.767-14.84C461.6,1096.07,455.584,1093.24,454.032,1092.8Zm0.374,28.07H433.594v-3.37h20.812v3.37Zm5.1-4.87h-30.47c-0.092-.34-0.2-0.71-0.31-1.09-0.146-.49-0.294-0.98-0.4-1.41l-0.35-1.38a35.562,35.562,0,0,1-1.4-7.53c-0.048-2.63,2.5-10.42,10.711-10.91,6.536-.39,8.814,2.73,9.67,3.9a1.108,1.108,0,0,0,1.131.67,0.754,0.754,0,0,0,.549-0.91,0.745,0.745,0,0,0-.334-0.46c-0.037-.05-0.081-0.11-0.134-0.18a10.513,10.513,0,0,0-2.01-2.15c2.764-1.16,3.953-1.31,7.461-.31,1.28,0.36,6.648,2.91,7.551,7.83C462.058,1106.9,460.383,1112.93,459.5,1116Zm-7.066,8.18H435.563a0.75,0.75,0,1,0,0,1.5h16.875A0.75,0.75,0,0,0,452.438,1124.18Zm-1.383,2.76h-14.11a0.75,0.75,0,1,0,0,1.5h14.11A0.75,0.75,0,1,0,451.055,1126.94Zm-4.749,13.81H441.7a0.75,0.75,0,1,0,0,1.5h4.611A0.75,0.75,0,0,0,446.306,1140.75Zm1.124-2.76h-6.86a0.75,0.75,0,1,0,0,1.5h6.86A0.75,0.75,0,1,0,447.43,1137.99Zm1.125-2.76h-9.11a0.75,0.75,0,1,0,0,1.5h9.11A0.75,0.75,0,1,0,448.555,1135.23Zm1.188-2.77H438.258a0.75,0.75,0,0,0,0,1.5h11.485A0.75,0.75,0,0,0,449.743,1132.46Zm0.625-2.75H437.633a0.75,0.75,0,0,0,0,1.5h12.735A0.75,0.75,0,0,0,450.368,1129.71Z" transform="translate(-410 -1083)"/>
</svg>
