<svg xmlns="http://www.w3.org/2000/svg" width="68" height="68" viewBox="0 0 68 68">
  <metadata><?xpacket begin="﻿" id="W5M0MpCehiHzreSzNTczkc9d"?>
<x:xmpmeta xmlns:x="adobe:ns:meta/" x:xmptk="Adobe XMP Core 5.6-c140 79.160451, 2017/05/06-01:08:21        ">
   <rdf:RDF xmlns:rdf="http://www.w3.org/1999/02/22-rdf-syntax-ns#">
      <rdf:Description rdf:about=""/>
   </rdf:RDF>
</x:xmpmeta>
                                                                                                    
                                                                                                    
                                                                                                    
                                                                                                    
                                                                                                    
                                                                                                    
                                                                                                    
                                                                                                    
                                                                                                    
                                                                                                    
                                                                                                    
                                                                                                    
                                                                                                    
                                                                                                    
                                                                                                    
                                                                                                    
                                                                                                    
                                                                                                    
                                                                                                    
                                                                                                    
                           
<?xpacket end="w"?></metadata>
<defs>
    <style>
      .cls-1 {
        fill: #c3a885;
        fill-rule: evenodd;
      }
    </style>
  </defs>
  <path id="Surgery_and_implantation_icon" data-name="Surgery and implantation icon" class="cls-1" d="M1190.5,865h-25a21.528,21.528,0,0,0-21.5,21.5v25a21.528,21.528,0,0,0,21.5,21.5h25a21.528,21.528,0,0,0,21.5-21.5v-25A21.528,21.528,0,0,0,1190.5,865Zm18.5,46.5a18.522,18.522,0,0,1-18.5,18.5h-25a18.522,18.522,0,0,1-18.5-18.5v-25a18.522,18.522,0,0,1,18.5-18.5h25a18.522,18.522,0,0,1,18.5,18.5v25Zm-8.62-10.177a3.254,3.254,0,0,1-1.49-.863,2.04,2.04,0,0,1-.34-1.636,1,1,0,0,0-.19-0.848,1.008,1.008,0,0,0-.79-0.377h-3.5a0.979,0.979,0,0,0-.7.294,1,1,0,0,0-.3.707,8.911,8.911,0,0,1-.19,1.987,7.4,7.4,0,0,1-1.43.652,1,1,0,0,0-.67.944v16.75a1,1,0,0,0,1,1h8.42a1,1,0,0,0,1-1V902.307A1.012,1.012,0,0,0,1200.38,901.323Zm-1.18,16.61h-6.42v-3.875h4.17a1,1,0,0,0,0-2h-4.17v-0.875h4.17a1,1,0,0,0,0-2h-4.17v-0.875h4.17a1,1,0,0,0,0-2h-4.17v-3.435a4.2,4.2,0,0,0,1.73-1.112,4.627,4.627,0,0,0,.53-2.162h1.47a3.449,3.449,0,0,0,1,2.306,5.567,5.567,0,0,0,1.69,1.127v14.9Zm-3.92-33.762c-0.61,1.015-2.58,4.444-2.58,5.949a3.435,3.435,0,1,0,6.87,0c0-1.5-1.97-4.934-2.57-5.949A1.041,1.041,0,0,0,1195.28,884.171Zm0.86,7.387a1.437,1.437,0,0,1-1.44-1.438,12.753,12.753,0,0,1,1.44-3.4,12.965,12.965,0,0,1,1.43,3.4A1.435,1.435,0,0,1,1196.14,891.558Zm-8.27-7.31a3.5,3.5,0,0,0-1.58-.372c-3.56,0-8.02,4.715-8.5,5.225l-12.95,12.956a0.966,0.966,0,0,0-.39.232,3.468,3.468,0,0,1-4.78,0,3.39,3.39,0,0,1,0-4.773,1,1,0,1,0-1.41-1.415,5.363,5.363,0,0,0,7.02,8.08l1.39,1.39-4.21,4.212a5.41,5.41,0,1,0,1.41,1.414l4.21-4.212,1.39,1.39a5.364,5.364,0,0,0,8.08,7.019,1,1,0,0,0-1.41-1.415,3.466,3.466,0,0,1-4.78,0,3.4,3.4,0,0,1,0-4.773,0.926,0.926,0,0,0,.14-0.2,0.07,0.07,0,0,1,.01-0.008l13.03-13.038c0.52-.445,5.09-4.452,5.29-8.115a3.842,3.842,0,0,0-.59-2.341l8.52-9.83ZM1159.43,917.6a3.375,3.375,0,1,1,3.38-3.375A3.375,3.375,0,0,1,1159.43,917.6Zm7.39-14.7,3.45-3.448,1.26,1.258-3.45,3.448Zm6.12-.776,1.31,1.307-3.45,3.447-1.3-1.306Zm11.42-8.737-1.8-1.8a1,1,0,1,0-1.42,1.414l1.77,1.77-1.41,1.414-1.77-1.769a1,1,0,0,0-1.42,1.414l1.77,1.769-1.41,1.414-1.77-1.769a1,1,0,0,0-1.41,1.414l1.77,1.769-1.6,1.592-3.97-3.979,7.54-7.55c1.11-1.2,4.79-4.611,7.06-4.611a1.585,1.585,0,0,1,.6.11,0.874,0.874,0,0,0,.26.4,1,1,0,0,0,.41.2,1.845,1.845,0,0,1,.27,1.151C1187.74,889.558,1185.83,891.891,1184.36,893.386Z" transform="translate(-1144 -865)"/>
</svg>
