<svg xmlns="http://www.w3.org/2000/svg" width="68" height="68" viewBox="0 0 68 68">
  <metadata><?xpacket begin="﻿" id="W5M0MpCehiHzreSzNTczkc9d"?>
<x:xmpmeta xmlns:x="adobe:ns:meta/" x:xmptk="Adobe XMP Core 5.6-c140 79.160451, 2017/05/06-01:08:21        ">
   <rdf:RDF xmlns:rdf="http://www.w3.org/1999/02/22-rdf-syntax-ns#">
      <rdf:Description rdf:about=""/>
   </rdf:RDF>
</x:xmpmeta>
                                                                                                    
                                                                                                    
                                                                                                    
                                                                                                    
                                                                                                    
                                                                                                    
                                                                                                    
                                                                                                    
                                                                                                    
                                                                                                    
                                                                                                    
                                                                                                    
                                                                                                    
                                                                                                    
                                                                                                    
                                                                                                    
                                                                                                    
                                                                                                    
                                                                                                    
                                                                                                    
                           
<?xpacket end="w"?></metadata>
<defs>
    <style>
      .cls-1 {
        fill: #c3a885;
        fill-rule: evenodd;
      }
    </style>
  </defs>
  <path id="therapy_icon" data-name="therapy icon" class="cls-1" d="M456.5,865h-25A21.525,21.525,0,0,0,410,886.5v25A21.524,21.524,0,0,0,431.5,933h25A21.524,21.524,0,0,0,478,911.5v-25A21.525,21.525,0,0,0,456.5,865ZM475,911.5A18.521,18.521,0,0,1,456.5,930h-25A18.522,18.522,0,0,1,413,911.5v-25A18.522,18.522,0,0,1,431.5,868h25A18.521,18.521,0,0,1,475,886.5v25Zm-22.029-37.2c-4.112-1.175-5.506-.917-9.369.769a13.823,13.823,0,0,0-7.465-1.381c-8.611.512-12.194,8.478-12.122,12.428a52,52,0,0,0,1.869,10.125l0.172,0.689c0.557,2.227,1.084,4.329,1.3,5.783,0.533,3.583,1.073,10.461,1.242,13.845l0.03,0.637c0.107,2.423.239,5.439,2,7.036a4.433,4.433,0,0,0,3.34,1.039c5.061-.281,5.287-3.705,5.6-8.444l0.023-.339c0.055-.824.085-1.737,0.117-2.69,0.148-4.466.332-10.025,3.344-10.195a1.879,1.879,0,0,1,1.471.481c1.469,1.368,1.532,5.468,1.583,8.764,0.015,0.946.029,1.866,0.071,2.711,0.161,3.282.5,6.93,2.429,8.661a4.319,4.319,0,0,0,2.981,1.063c0.126,0,.254,0,0.385-0.012,4.738-.29,5.042-2.028,5.7-10.189,0.251-3.1.376-5.238,0.477-6.952a39.406,39.406,0,0,1,.677-6.292c0.077-.374.276-1.054,0.529-1.916,1.134-3.863,3.245-11.054,2.224-16.62C460.534,877.569,454.524,874.74,452.971,874.3ZM436.638,896.73l2.514,1.257-5.1.324a0.748,0.748,0,0,0-.695.641l-0.991,6.935-3.788-5.147a0.713,0.713,0,0,0-.081-0.075c-0.266-1.228-.618-2.637-0.985-4.1l-0.129-.517,4.346-6.83,1.528,5.06a0.749,0.749,0,0,0,.97.489l4.048-1.451L436.4,895.58A0.75,0.75,0,0,0,436.638,896.73Zm21.285,2.766c-0.273.93-.47,1.6-0.56,2.037a41.02,41.02,0,0,0-.7,6.5c-0.1,1.707-.224,3.831-0.474,6.919-0.677,8.392-.948,8.607-4.3,8.812a2.945,2.945,0,0,1-2.273-.67c-1.432-1.282-1.775-4.419-1.932-7.618-0.041-.828-0.055-1.732-0.069-2.66-0.061-3.951-.124-8.037-2.062-9.839a3.3,3.3,0,0,0-2.33-.888c-0.082,0-.164,0-0.247.007-4.381.248-4.59,6.566-4.758,11.643-0.032.936-.061,1.831-0.115,2.64l-0.023.339c-0.343,5.2-.622,6.848-4.187,7.046a2.926,2.926,0,0,1-2.251-.654c-1.3-1.175-1.417-3.844-1.512-5.989l-0.03-.645c-0.151-3.018-.595-8.791-1.069-12.6l3.216,4.371a0.748,0.748,0,0,0,.6.306,0.758,0.758,0,0,0,.183-0.023,0.751,0.751,0,0,0,.56-0.621l1.164-8.146,7.266-.462a0.75,0.75,0,0,0,.288-1.419l-4.155-2.078,3.022-3.648a0.75,0.75,0,0,0-.831-1.184l-5.882,2.108-1.772-5.869a0.75,0.75,0,0,0-.616-0.526,0.741,0.741,0,0,0-.734.341l-4.455,7a42,42,0,0,1-1.371-7.945c-0.048-2.629,2.5-10.416,10.711-10.9,6.537-.39,8.814,2.726,9.671,3.9a1.093,1.093,0,0,0,1.131.665,0.749,0.749,0,0,0,.214-1.366c-0.037-.049-0.081-0.111-0.134-0.184a10.444,10.444,0,0,0-2-2.144c2.764-1.164,3.947-1.314,7.455-.314,1.28,0.367,6.649,2.911,7.552,7.832C461.067,888.784,458.944,896.019,457.923,899.5Z" transform="translate(-410 -865)"/>
</svg>
