<svg xmlns="http://www.w3.org/2000/svg" width="22.907" height="24.218" viewBox="0 0 22.907 24.218">
  <metadata><?xpacket begin="﻿" id="W5M0MpCehiHzreSzNTczkc9d"?>
<x:xmpmeta xmlns:x="adobe:ns:meta/" x:xmptk="Adobe XMP Core 5.6-c140 79.160451, 2017/05/06-01:08:21        ">
   <rdf:RDF xmlns:rdf="http://www.w3.org/1999/02/22-rdf-syntax-ns#">
      <rdf:Description rdf:about=""/>
   </rdf:RDF>
</x:xmpmeta>
                                                                                                    
                                                                                                    
                                                                                                    
                                                                                                    
                                                                                                    
                                                                                                    
                                                                                                    
                                                                                                    
                                                                                                    
                                                                                                    
                                                                                                    
                                                                                                    
                                                                                                    
                                                                                                    
                                                                                                    
                                                                                                    
                                                                                                    
                                                                                                    
                                                                                                    
                                                                                                    
                           
<?xpacket end="w"?></metadata>
<defs>
    <style>
      .cls-1 {
        fill: #483930;
        fill-rule: evenodd;
      }
    </style>
  </defs>
  <path id="Viber_symbol" data-name="Viber symbol" class="cls-1" d="M470.119,391.556c-0.6-.552-3.033-2.317-8.445-2.343,0,0-6.385-.385-9.5,2.47-1.732,1.732-2.343,4.268-2.405,7.413s-0.149,9.034,5.532,10.632h0l0,2.437a1.245,1.245,0,0,0,.613,1.188c0.785,0.243,1.246-.5,2-1.315,0.411-.443.982-1.1,1.409-1.594a21.951,21.951,0,0,0,7.21-.531c0.785-.254,5.223-0.825,5.942-6.712C473.221,397.131,472.113,393.289,470.119,391.556Zm0.659,11.209c-0.611,4.918-4.211,5.23-4.873,5.441a20.194,20.194,0,0,1-6.2.527s-2.459,2.963-3.225,3.737a0.408,0.408,0,0,1-.356.145,0.369,0.369,0,0,1-.167-0.417c0-.327.022-4.05,0.022-4.05h0c-4.8-1.333-4.522-6.349-4.468-8.975s0.549-4.777,2.012-6.222c2.633-2.383,8.056-2.027,8.056-2.027,4.581,0.022,6.775,1.4,7.284,1.86C470.543,394.232,471.405,397.694,470.778,402.765ZM463.9,399.29a0.329,0.329,0,0,1-.328-0.313,1.427,1.427,0,0,0-1.52-1.58,0.328,0.328,0,0,1,.035-0.655,2.073,2.073,0,0,1,2.14,2.2,0.328,0.328,0,0,1-.311.344H463.9Zm1.57,0.527h-0.009a0.33,0.33,0,0,1-.32-0.336,3.5,3.5,0,0,0-.909-2.574,3.775,3.775,0,0,0-2.655-1.152,0.328,0.328,0,0,1,.047-0.654,4.458,4.458,0,0,1,3.092,1.362A4.183,4.183,0,0,1,465.8,399.5,0.328,0.328,0,0,1,465.471,399.817Zm1.607,0.628a0.328,0.328,0,0,1-.327-0.325,5.822,5.822,0,0,0-1.641-4.355,5.648,5.648,0,0,0-4.048-1.6,0.328,0.328,0,0,1,0-.656h0a6.284,6.284,0,0,1,4.5,1.786,6.529,6.529,0,0,1,1.839,4.82,0.328,0.328,0,0,1-.326.33h0Zm-4.947,2.618a0.839,0.839,0,0,0,.663-0.251l0.449-.567a0.994,0.994,0,0,1,1.26-.174,13.244,13.244,0,0,1,1.122.716c0.343,0.25,1.044.835,1.044,0.835a0.865,0.865,0,0,1,.184,1.13,0.02,0.02,0,0,1,0,.007,4.73,4.73,0,0,1-.942,1.159,0.023,0.023,0,0,0-.007.007,1.852,1.852,0,0,1-.955.461,0.535,0.535,0,0,1-.139.007,1.32,1.32,0,0,1-.406-0.061l-0.011-.015a13.786,13.786,0,0,1-2.625-1.213,15.323,15.323,0,0,1-2.205-1.457,11.42,11.42,0,0,1-.992-0.879c-0.011-.011-0.021-0.022-0.033-0.032s-0.021-.022-0.032-0.033h0c-0.012-.011-0.022-0.022-0.033-0.033s-0.022-.022-0.033-0.032a11.722,11.722,0,0,1-.879-0.992,15.784,15.784,0,0,1-1.457-2.205,13.853,13.853,0,0,1-1.212-2.626l-0.015-.011a1.179,1.179,0,0,1-.062-0.406,0.5,0.5,0,0,1,.008-0.139,1.859,1.859,0,0,1,.461-0.955l0.007-.006a4.626,4.626,0,0,1,1.158-.941,0.018,0.018,0,0,0,.008-0.005,0.867,0.867,0,0,1,1.131.187s0.584,0.7.834,1.042a12.93,12.93,0,0,1,.715,1.122,0.992,0.992,0,0,1-.173,1.26l-0.568.45a0.84,0.84,0,0,0-.25.661A5.922,5.922,0,0,0,462.131,403.063Z" transform="translate(-449.781 -389.188)"/>
</svg>
