<?xml version="1.0" encoding="utf-8"?>
<!-- Generator: Adobe Illustrator 15.0.0, SVG Export Plug-In . SVG Version: 6.00 Build 0)  -->
<!DOCTYPE svg PUBLIC "-//W3C//DTD SVG 1.1//EN" "http://www.w3.org/Graphics/SVG/1.1/DTD/svg11.dtd">
<svg version="1.1" id="Layer_1" xmlns="http://www.w3.org/2000/svg" xmlns:xlink="http://www.w3.org/1999/xlink" x="0px" y="0px"
	 width="32px" height="32px" viewBox="0 0 32 32" enable-background="new 0 0 32 32" xml:space="preserve">
<g>
	<circle fill="#E6DDD3" cx="16.001" cy="16.002" r="16.001"/>
	<path fill="#597DA3" d="M23.023,21.539l-2.306,0.033c0,0-0.494,0.102-1.143-0.346c-0.86-0.591-1.67-2.129-2.304-1.928
		c-0.643,0.201-0.622,1.586-0.622,1.586s0.006,0.294-0.142,0.453c-0.152,0.175-0.466,0.21-0.466,0.21h-1.031
		c0,0-2.271,0.138-4.275-1.941c-2.179-2.282-4.109-6.8-4.109-6.8s-0.111-0.3,0.006-0.439c0.14-0.161,0.51-0.175,0.51-0.175
		l2.464-0.014c0,0,0.234,0.04,0.402,0.161c0.141,0.102,0.213,0.288,0.213,0.288s0.393,1.009,0.921,1.921
		c1.029,1.778,1.511,2.174,1.857,1.98c0.508-0.276,0.353-2.516,0.353-2.516s0.015-0.817-0.252-1.179
		c-0.201-0.283-0.587-0.368-0.761-0.388c-0.142-0.021,0.086-0.341,0.379-0.488c0.442-0.223,1.229-0.228,2.151-0.223
		c0.723,0.009,0.93,0.057,1.21,0.123c0.849,0.2,0.563,0.995,0.563,2.896c0,0.609-0.114,1.473,0.326,1.754
		c0.184,0.12,0.647,0.013,1.802-1.947c0.55-0.931,0.958-2.021,0.958-2.021s0.086-0.2,0.228-0.281
		c0.14-0.085,0.333-0.059,0.333-0.059l2.592-0.014c0,0,0.776-0.096,0.902,0.261c0.136,0.367-0.293,1.23-1.349,2.644
		c-1.738,2.319-1.932,2.101-0.488,3.444c1.375,1.277,1.663,1.901,1.711,1.981C24.226,21.467,23.023,21.539,23.023,21.539z"/>
</g>
</svg>
