<svg xmlns="http://www.w3.org/2000/svg" width="47.593" height="47.62" viewBox="0 0 47.593 47.62">
  <metadata><?xpacket begin="﻿" id="W5M0MpCehiHzreSzNTczkc9d"?>
<x:xmpmeta xmlns:x="adobe:ns:meta/" x:xmptk="Adobe XMP Core 5.6-c140 79.160451, 2017/05/06-01:08:21        ">
   <rdf:RDF xmlns:rdf="http://www.w3.org/1999/02/22-rdf-syntax-ns#">
      <rdf:Description rdf:about=""/>
   </rdf:RDF>
</x:xmpmeta>
                                                                                                    
                                                                                                    
                                                                                                    
                                                                                                    
                                                                                                    
                                                                                                    
                                                                                                    
                                                                                                    
                                                                                                    
                                                                                                    
                                                                                                    
                                                                                                    
                                                                                                    
                                                                                                    
                                                                                                    
                                                                                                    
                                                                                                    
                                                                                                    
                                                                                                    
                                                                                                    
                           
<?xpacket end="w"?></metadata>
<defs>
    <style>
      .cls-1 {
        fill: #fff;
        fill-rule: evenodd;
        opacity: 0.69;
      }
    </style>
  </defs>
  <path id="vkontakte" class="cls-1" d="M197.275,3062.7a23.8,23.8,0,1,0,23.8,23.8A23.8,23.8,0,0,0,197.275,3062.7Zm8.844,27.57a11.736,11.736,0,0,1,2.547,2.94c0.841,1.42-.946,1.53-0.946,1.53l-3.431.04a2.345,2.345,0,0,1-1.7-.51c-1.279-.88-2.484-3.17-3.428-2.87s-0.924,2.36-.924,2.36a1.127,1.127,0,0,1-.212.68,1.231,1.231,0,0,1-.693.31H195.8a8.827,8.827,0,0,1-6.359-2.89c-3.241-3.4-6.113-10.11-6.113-10.11a0.84,0.84,0,0,1,.009-0.66,1.291,1.291,0,0,1,.759-0.26l3.665-.02a1.663,1.663,0,0,1,.6.24,1.067,1.067,0,0,1,.317.43,23.868,23.868,0,0,0,1.37,2.86c1.531,2.64,2.248,3.23,2.763,2.94,0.755-.41.525-3.74,0.525-3.74a3.667,3.667,0,0,0-.375-1.75,1.636,1.636,0,0,0-1.132-.58c-0.212-.03.128-0.51,0.563-0.73a8.266,8.266,0,0,1,3.2-.33,7.01,7.01,0,0,1,1.8.18c1.263,0.3.836,1.48,0.836,4.31,0,0.91-.168,2.19.486,2.61,0.273,0.18.961,0.02,2.681-2.9a21.891,21.891,0,0,0,1.424-3,1,1,0,0,1,.34-0.42,0.845,0.845,0,0,1,.5-0.09l3.856-.02s1.155-.14,1.342.39c0.2,0.55-.437,1.83-2.006,3.93C204.26,3088.6,203.974,3088.27,206.119,3090.27Z" transform="translate(-173.469 -3062.69)"/>
</svg>
