<svg xmlns="http://www.w3.org/2000/svg" width="23.094" height="23.188" viewBox="0 0 23.094 23.188">
  <metadata><?xpacket begin="﻿" id="W5M0MpCehiHzreSzNTczkc9d"?>
<x:xmpmeta xmlns:x="adobe:ns:meta/" x:xmptk="Adobe XMP Core 5.6-c140 79.160451, 2017/05/06-01:08:21        ">
   <rdf:RDF xmlns:rdf="http://www.w3.org/1999/02/22-rdf-syntax-ns#">
      <rdf:Description rdf:about=""/>
   </rdf:RDF>
</x:xmpmeta>
                                                                                                    
                                                                                                    
                                                                                                    
                                                                                                    
                                                                                                    
                                                                                                    
                                                                                                    
                                                                                                    
                                                                                                    
                                                                                                    
                                                                                                    
                                                                                                    
                                                                                                    
                                                                                                    
                                                                                                    
                                                                                                    
                                                                                                    
                                                                                                    
                                                                                                    
                                                                                                    
                           
<?xpacket end="w"?></metadata>
<defs>
    <style>
      .cls-1 {
        fill: #483930;
        fill-rule: evenodd;
      }
    </style>
  </defs>
  <path id="WhatsApp_symbol" data-name="WhatsApp symbol" class="cls-1" d="M424.166,410.383a11.479,11.479,0,0,0,5.5,1.4h0a11.5,11.5,0,1,0-9.965-5.759l-1.631,5.959Zm5.5-19.666a9.562,9.562,0,0,1,0,19.123h0a9.547,9.547,0,0,1-4.865-1.332l-0.349-.207-3.618.949,0.966-3.528-0.227-.361a9.562,9.562,0,0,1,8.1-14.644m0.235,14.313a16.558,16.558,0,0,0,1.638.607,3.947,3.947,0,0,0,1.81.113,2.96,2.96,0,0,0,1.938-1.366,2.385,2.385,0,0,0,.167-1.367,1.418,1.418,0,0,0-.549-0.335c-0.288-.144-1.7-0.839-1.964-0.935a0.447,0.447,0,0,0-.646.144c-0.192.287-.743,0.934-0.911,1.126a0.437,0.437,0,0,1-.621.072,7.809,7.809,0,0,1-2.311-1.426,8.672,8.672,0,0,1-1.6-1.99,0.419,0.419,0,0,1,.126-0.587c0.13-.129.288-0.336,0.431-0.5a1.928,1.928,0,0,0,.287-0.48,0.525,0.525,0,0,0-.024-0.5c-0.071-.144-0.646-1.558-0.886-2.133a0.571,0.571,0,0,0-.645-0.494c-0.168-.009-0.36-0.01-0.552-0.01a1.054,1.054,0,0,0-.765.359,3.224,3.224,0,0,0-1.006,2.4A5.587,5.587,0,0,0,425,400.692a12.777,12.777,0,0,0,4.909,4.338" transform="translate(-418.062 -388.781)"/>
</svg>
