<?xml version="1.0" encoding="utf-8"?>
<!-- Generator: Adobe Illustrator 15.0.0, SVG Export Plug-In . SVG Version: 6.00 Build 0)  -->
<!DOCTYPE svg PUBLIC "-//W3C//DTD SVG 1.1//EN" "http://www.w3.org/Graphics/SVG/1.1/DTD/svg11.dtd">
<svg version="1.1" id="Layer_1" xmlns="http://www.w3.org/2000/svg" xmlns:xlink="http://www.w3.org/1999/xlink" x="0px" y="0px"
	 width="32px" height="32px" viewBox="0 0 32 32" enable-background="new 0 0 32 32" xml:space="preserve">
<g>
	<path fill="#FFFFFF" d="M16.002,0C7.164,0,0,7.165,0,16.002c0,8.838,7.164,16.001,16.002,16.001
		c8.837,0,16.001-7.163,16.001-16.001C32.003,7.165,24.839,0,16.002,0z M25.044,20.517c-0.217,0.807-0.856,1.442-1.668,1.657
		c-1.473,0.393-7.374,0.393-7.374,0.393s-5.902,0-7.375-0.393c-0.812-0.215-1.451-0.851-1.668-1.657
		c-0.394-1.464-0.394-4.515-0.394-4.515s0-3.052,0.394-4.516c0.217-0.807,0.856-1.442,1.668-1.657
		c1.472-0.393,7.375-0.393,7.375-0.393s5.901,0,7.374,0.393c0.812,0.215,1.451,0.851,1.668,1.657
		c0.395,1.464,0.395,4.516,0.395,4.516S25.438,19.053,25.044,20.517z"/>
	<polygon fill="#FFFFFF" points="14.071,18.772 19.004,16.002 14.071,13.23 	"/>
</g>
</svg>
