<svg xmlns="http://www.w3.org/2000/svg" width="47.593" height="47.62" viewBox="0 0 47.593 47.62">
  <metadata><?xpacket begin="﻿" id="W5M0MpCehiHzreSzNTczkc9d"?>
<x:xmpmeta xmlns:x="adobe:ns:meta/" x:xmptk="Adobe XMP Core 5.6-c140 79.160451, 2017/05/06-01:08:21        ">
   <rdf:RDF xmlns:rdf="http://www.w3.org/1999/02/22-rdf-syntax-ns#">
      <rdf:Description rdf:about=""/>
   </rdf:RDF>
</x:xmpmeta>
                                                                                                    
                                                                                                    
                                                                                                    
                                                                                                    
                                                                                                    
                                                                                                    
                                                                                                    
                                                                                                    
                                                                                                    
                                                                                                    
                                                                                                    
                                                                                                    
                                                                                                    
                                                                                                    
                                                                                                    
                                                                                                    
                                                                                                    
                                                                                                    
                                                                                                    
                                                                                                    
                           
<?xpacket end="w"?></metadata>
<defs>
    <style>
      .cls-1 {
        fill: #fff;
        fill-rule: evenodd;
        opacity: 0.69;
      }
    </style>
  </defs>
  <path id="youtube" class="cls-1" d="M442.726,3062.7a23.8,23.8,0,1,0,23.8,23.8A23.8,23.8,0,0,0,442.726,3062.7Zm13.451,30.52a3.5,3.5,0,0,1-2.481,2.46c-2.193.59-10.97,0.59-10.97,0.59s-8.779,0-10.971-.59a3.494,3.494,0,0,1-2.481-2.46,38.824,38.824,0,0,1,0-13.44,3.494,3.494,0,0,1,2.481-2.46c2.19-.59,10.971-0.59,10.971-0.59s8.777,0,10.97.59a3.5,3.5,0,0,1,2.481,2.46A38.694,38.694,0,0,1,456.177,3093.22Zm-16.323-2.6,7.338-4.12-7.338-4.12v8.24Z" transform="translate(-418.938 -3062.69)"/>
</svg>
