<?xml version="1.0" encoding="utf-8"?>
<!-- Generator: Adobe Illustrator 15.0.0, SVG Export Plug-In . SVG Version: 6.00 Build 0)  -->
<!DOCTYPE svg PUBLIC "-//W3C//DTD SVG 1.1//EN" "http://www.w3.org/Graphics/SVG/1.1/DTD/svg11.dtd">
<svg version="1.1" id="Layer_1" xmlns="http://www.w3.org/2000/svg" xmlns:xlink="http://www.w3.org/1999/xlink" x="0px" y="0px"
	 width="32px" height="32px" viewBox="0 0 32 32" enable-background="new 0 0 32 32" xml:space="preserve">
<g>
	<g>
		<circle fill="#E6DDD3" cx="16.001" cy="16.002" r="16.001"/>
	</g>
	<g>
		<path fill="#FF0000" d="M25.044,11.486c-0.217-0.807-0.856-1.442-1.668-1.657c-1.473-0.393-7.374-0.393-7.374-0.393
			s-5.902,0-7.375,0.393c-0.812,0.215-1.451,0.851-1.668,1.657c-0.394,1.464-0.394,4.516-0.394,4.516s0,3.051,0.394,4.515
			c0.217,0.807,0.856,1.442,1.668,1.657c1.472,0.393,7.375,0.393,7.375,0.393s5.901,0,7.374-0.393
			c0.812-0.215,1.451-0.851,1.668-1.657c0.395-1.464,0.395-4.515,0.395-4.515S25.438,12.95,25.044,11.486"/>
		<polygon fill="#FFFFFF" points="14.071,18.772 19.004,16.002 14.071,13.23 		"/>
	</g>
</g>
</svg>
