<?xml version="1.0" encoding="utf-8"?>
<!-- Generator: Adobe Illustrator 15.0.0, SVG Export Plug-In . SVG Version: 6.00 Build 0)  -->
<!DOCTYPE svg PUBLIC "-//W3C//DTD SVG 1.1//EN" "http://www.w3.org/Graphics/SVG/1.1/DTD/svg11.dtd">
<svg version="1.1" id="Layer_1" xmlns="http://www.w3.org/2000/svg" xmlns:xlink="http://www.w3.org/1999/xlink" x="0px" y="0px"
	 width="26.079px" height="24.095px" viewBox="0 0 26.079 24.095" enable-background="new 0 0 26.079 24.095" xml:space="preserve">
<path fill="#482C3A" d="M25.082,19.42l-5.963-5.052c0.581-1.285,0.913-2.71,0.913-4.214C20.032,4.555,15.541,0,10.021,0
	C4.496,0,0,4.555,0,10.154c0,5.601,4.496,10.158,10.021,10.158c2.188,0,4.206-0.723,5.856-1.936l5.928,5.021
	C22.283,23.803,22.864,24,23.442,24c0.731,0,1.457-0.316,1.964-0.93C26.311,21.973,26.166,20.338,25.082,19.42z M16.476,12.737
	c-0.533,1.368-1.474,2.526-2.673,3.319c-1.089,0.723-2.387,1.146-3.782,1.146c-3.833,0-6.953-3.162-6.953-7.048
	c0-3.884,3.12-7.043,6.953-7.043c3.829,0,6.944,3.16,6.944,7.043C16.965,11.067,16.788,11.936,16.476,12.737z"/>
</svg>
